<?xml version="1.0" encoding="UTF-8" standalone="no"?>
<svg
   xmlns:dc="http://purl.org/dc/elements/1.1/"
   xmlns:cc="http://creativecommons.org/ns#"
   xmlns:rdf="http://www.w3.org/1999/02/22-rdf-syntax-ns#"
   xmlns:svg="http://www.w3.org/2000/svg"
   xmlns="http://www.w3.org/2000/svg"
   xmlns:sodipodi="http://sodipodi.sourceforge.net/DTD/sodipodi-0.dtd"
   xmlns:inkscape="http://www.inkscape.org/namespaces/inkscape"
   version="1.1"
   width="360"
   height="320"
   id="svg150"
   sodipodi:docname="harbour_cairo.svg"
   inkscape:version="1.0.1 (3bc2e813f5, 2020-09-07)">
  <metadata
     id="metadata156">
    <rdf:RDF>
      <cc:Work
         rdf:about="">
        <dc:format>image/svg+xml</dc:format>
        <dc:type
           rdf:resource="http://purl.org/dc/dcmitype/StillImage" />
        <dc:title />
      </cc:Work>
    </rdf:RDF>
  </metadata>
  <defs
     id="defs154" />
  <sodipodi:namedview
     pagecolor="#ffffff"
     bordercolor="#666666"
     borderopacity="1"
     objecttolerance="10"
     gridtolerance="10"
     guidetolerance="10"
     inkscape:pageopacity="0"
     inkscape:pageshadow="2"
     inkscape:window-width="1920"
     inkscape:window-height="1017"
     id="namedview152"
     showgrid="false"
     inkscape:zoom="2.3100559"
     inkscape:cx="266.63936"
     inkscape:cy="115.16276"
     inkscape:window-x="-8"
     inkscape:window-y="-8"
     inkscape:window-maximized="1"
     inkscape:current-layer="svg150"
     inkscape:document-rotation="0" />
  <g
     transform="matrix(0.125,0,0,-0.125,2.6789501,306.06245)"
     id="g148">
    <path
       id="path92"
       style="stroke-width:0.125"
       transform="matrix(8,0,0,-8,-21.431601,2448.4996)"
       d="m 40.623047,262.48242 c 9.23975,3.919 16.329609,8.37497 24.912109,13.9336 137.220624,19.4214 227.363044,18.78949 280.560544,7.38867 4.85625,-2.74463 5.48946,-4.64556 6.97071,-8.44531 -54.575,10.44823 -172.37324,6.64704 -312.443363,-12.87696 z" />
    <path
       fill="#4997d9"
       d="m 750.84,519.199 c -3.262,-8.187 -6.348,-15.597 -9.176,-22.133 120.332,30.688 225.27,104.942 343.086,35.821 15.74,220.496 47.34,458.816 171.17,807.113 4.24,87.85 10.44,177.85 18.72,275.68 -32.94,-389.52 -32.94,-655.742 -4.41,-1155.153 -153.8,24.028 -431.277,6.567 -566.007,-45.722 10.98,25.562 26.933,61.226 46.617,104.394"
       id="path94" />
    <path
       fill="#225aa6"
       d="M 1264.75,2259.18 C 874.328,1732.13 422.793,1043.55 272.227,812.516 422.793,1043.55 874.328,1732.13 1264.75,2259.18"
       id="path96" />
    <path
       fill="#0974c5"
       d="m 558.344,742.5 c 206.461,87.387 255.051,179.547 421.461,166.676 51.215,535.044 176.585,737.284 298.165,1058.394 -99.69,-165.17 -197.96,-330.05 -290.65,-486.98 0.004,0.03 0.016,0.07 0.02,0.1 98.45,166.7 203.2,342.34 309.27,517.76 C 1111.74,1507.86 1069.98,777.684 1069.98,599.125 994.473,638.547 729.516,620.547 420.367,496.168 c 25.957,48.164 73.844,133.75 137.977,246.332 m 157.988,274.88 h 0.02 C 673.578,943.52 633.977,874.75 598.266,812.398 c 35.687,62.329 75.324,131.157 118.066,204.982"
       id="path98" />
    <path
       fill="#095fa8"
       d="M 1264.75,2259.18 C 968.824,1847.07 953.434,1191.32 953.434,1012.76 733.383,1076.58 489.125,948.957 272.227,812.516 422.793,1043.55 874.328,1732.13 1264.75,2259.18"
       id="path100" />
    <g
       fill="#09397f"
       id="g122">
      <path
         id="path102"
         style="stroke-width:0.125"
         transform="matrix(8,0,0,-8,-21.431601,2448.4996)"
         d="m 2.6796875,246.67383 c 0,3.7115 0.5917975,6.76706 1.75,8.66406 21.3115125,2.752 56.7797655,7.0308 69.1191405,8.45117 126.808372,14.55375 229.107192,18.25782 278.210942,8.85156 0.0913,-3.11324 -0.69922,-3.9062 -1.01172,-5.37695 C 281.8143,280.37792 81.704562,255.0777 2.6796875,246.67383 Z" />
      <path
         d="m 785.875,601.973 c 1.082,0.179 2.16,0.367 3.242,0.547 -13.808,-29.848 -26.586,-57.637 -38.09,-82.868 -0.066,-0.148 -0.125,-0.3 -0.187,-0.453 -19.684,-43.168 -35.637,-78.832 -46.617,-104.394 134.73,52.289 412.207,69.75 566.007,45.722 -28.35,496.391 -28.52,762.423 3.82,1148.123 0.2,0.4 0.4,0.78 0.59,1.17 -32.94,-389.51 -27.09,-673.285 1.45,-1172.785 -153.81,24.121 -454.598,0.813 -589.328,-51.48 19.199,44.738 54.55,121.613 99.113,216.418"
         id="path104" />
      <path
         id="path108"
         style="stroke-width:0.125"
         transform="matrix(8,0,0,-8,-28.35784,2448.4996)"
         d="m 400.08789,260.11328 -0.57227,0.23242 c 0.0307,-0.007 0.0611,-0.0161 0.0918,-0.0234 0.2264,-0.0543 0.45346,-0.1279 0.68164,-0.20899 z" />
      <path
         d="m 769.867,0 c 0.821,1.01562 1.688,2.12109 2.567,3.125 45.586,54.125 131.164,99.047 254.516,94.6836 240.49,-8.4375 443.31,-25.0391 809.32,-7.0547 -360,9.1445 -798.36,47.1291 -1326.653,121.9301 C 640.898,136.34 750.098,21.3906 769.867,0 v 0"
         id="path120" />
    </g>
    <path
       d="m 1134.71,1330.7 c 56.28,116.28 105.94,217.58 139.93,284.98 -33.99,-67.4 -83.65,-168.7 -139.93,-284.98 v 0"
       id="path124" />
    <path
       d="m 751.027,519.652 c 11.504,25.231 24.282,53.02 38.09,82.868 136.246,22.773 238.443,18.75 280.863,-3.395 0,105.563 14.6,403.905 64.73,731.575 56.28,116.28 105.94,217.58 139.93,284.98 -8.28,-97.83 -14.48,-187.83 -18.72,-275.68 -123.83,-348.297 -155.43,-586.617 -171.17,-807.113 -117.816,69.121 -222.754,-5.133 -343.086,-35.821 2.883,6.661 6.031,14.219 9.363,22.586"
       id="path126" />
    <path
       d="M 598.266,812.398 C 584.34,788.078 571.035,764.781 558.344,742.5 l -0.008,-0.004 c 12.691,22.27 26.012,45.594 39.93,69.902"
       id="path128" />
    <path
       d="m 598.266,812.398 c -13.926,-24.32 -27.231,-47.617 -39.922,-69.898 12.691,22.281 25.996,45.578 39.922,69.898"
       id="path130" />
    <path
       d="m 598.266,812.398 c 35.711,62.352 75.312,131.122 118.086,204.982 80.535,16.61 160.261,17.66 237.082,-4.62 0,80.69 3.144,258.8 33.886,467.83 92.69,156.93 190.96,321.81 290.65,486.98 -121.58,-321.11 -246.95,-523.35 -298.165,-1058.394 -166.41,12.871 -215,-79.289 -421.461,-166.676 12.691,22.281 25.996,45.578 39.922,69.898"
       id="path132" />
    <path
       id="path138"
       style="stroke-width:0.125"
       transform="matrix(8,0,0,-8,-21.431601,2448.4996)"
       d="m 370.85547,247.81445 c -0.74468,0.014 -1.48575,0.0381 -2.21289,0.0996 -0.6232,0.0527 -1.24733,0.0953 -1.8711,0.14258 1.36664,-0.035 2.73211,-0.10375 4.08399,-0.24219 z" />
  </g>
  <path
     style="fill:#800000;fill-opacity:1;stroke-width:0.15305"
     d="M 236.2204,291.5833 C 187.9765,290.56423 132.812,285.71501 70.237983,276.99267 l -4.668016,-0.65069 -2.83142,-1.81791 c -7.800354,-5.00822 -14.244339,-8.62475 -19.780251,-11.10118 -0.819946,-0.36679 -1.472251,-0.68546 -1.449566,-0.70814 0.02268,-0.0227 2.277614,0.26562 5.010954,0.64067 54.349626,7.45763 108.801286,12.89278 156.259346,15.59719 14.45087,0.82348 22.04516,1.15442 40.78775,1.77743 7.68536,0.25546 38.94451,0.35794 46.99188,0.15405 24.58353,-0.62285 45.177,-2.32207 59.48833,-4.90854 1.4077,-0.25441 2.62962,-0.46257 2.71539,-0.46257 0.19399,0 -0.12268,0.85077 -1.01175,2.71818 -0.85351,1.79273 -2.15061,3.20529 -4.17712,4.54899 l -1.46342,0.97032 -3.13752,0.62232 c -19.99151,3.96524 -40.51422,6.05662 -69.33152,7.06527 -6.01423,0.2105 -29.93539,0.30335 -37.42065,0.14524 z"
     id="path416" />
  <g
     style="fill:none"
     id="g161"
     transform="matrix(2.6939169,0,0,2.9840343,205.69746,107.08951)">
    <path
       d="m 23.9149,10.5401 c 0,-1.30069 -2.7763,-2.35504 -6.2002,-2.35504 -3.4239,0 -6.1991,1.05435 -6.1991,2.35504 0,1.1368 2.7752,0.8192 6.1991,0.8192 3.4239,0 6.2002,0.2574 6.2002,-0.8192 z"
       fill="#adb0b5"
       id="path50" />
    <path
       d="m 16.2048,18.0008 1.5136,1.489 1.5091,-1.489 c 0.7946,-0.7802 9.7087,-0.7134 10.1501,-0.7089 -0.0514,-0.692 -0.1377,-1.3809 -0.2586,-2.0641 -1.6918,-2.1489 -4.7713,-3.5911 -8.3022,-3.5911 h -6.1913 c -3.5387,0 -6.62482,1.4489 -8.31447,3.6078 -0.1174,0.6687 -0.20284,1.3512 -0.25634,2.0474 0.44247,-0.0045 9.35551,-0.0758 10.15011,0.7089 z"
       fill="#adb0b5"
       id="path52" />
    <path
       d="m 17.7186,33.569 c 0.2229,-2.7563 0.9351,-11.5333 0.9362,-11.56 l -0.9362,-2.2536 -0.9374,2.2525 z"
       fill="#adb0b5"
       id="path54" />
    <path
       d="m 16.649,21.973 0.9875,-2.3751 -1.5259,-1.5046 C 15.4809,17.4725 8.6354,17.3978 6.05078,17.4246 v -0.0691 c -0.01709,0.2392 -0.03009,0.48 -0.03901,0.7222 -0.00892,0.2463 1.15801,0.5249 1.15801,0.749 0,0.2585 -1.16581,0.5662 -1.15467,0.8504 C 6.34948,27.8522 11.424,34.3478 17.6476,34.389 L 16.6445,21.9853 Z"
       fill="#adb0b5"
       id="path56" />
    <path
       d="m 28.2619,18.8231 c 0,-0.2229 1.1669,-0.5026 1.158,-0.7478 -0.0089,-0.2452 -0.0223,-0.4826 -0.039,-0.7223 v 0.0691 c -2.5847,-0.0245 -9.4302,0.0502 -10.0599,0.6688 l -1.5258,1.5046 0.993,2.3896 -1.003,12.4037 c 6.2247,-0.0468 11.2992,-6.5423 11.6324,-14.7119 0.0045,-0.2843 -1.1557,-0.5952 -1.1557,-0.8538 z"
       fill="#adb0b5"
       id="path58" />
    <path
       d="M 5.96059,15.7284 C 5.50028,15.6326 5.41446,15.5568 5.07564,15.403 4.0068,15.0285 3.91875,14.7922 3.28346,14.0811 2.45536,13.1549 1.87245,11.8364 1.37759,10.7977 0.978586,9.95844 0.931776,8.96872 1.05883,8.09269 1.17029,7.32031 1.85462,6.65828 2.40409,5.98398 3.05609,5.18151 3.56321,4.33111 4.40246,3.60332 5.26512,2.8588 6.9882,2.50995 7.31922,1.41324 7.4485,0.983026 7.05507,0.197274 7.85197,0 7.81073,0.523835 8.25766,0.945132 8.11946,1.51243 7.99352,2.02847 7.6324,2.15998 7.04838,2.52667 6.20579,3.05608 5.00097,3.50524 4.28989,4.08703 3.48965,4.73346 3.80284,5.61841 3.11739,6.31946 2.89448,6.54236 2.2369,6.8444 2.0987,7.08069 1.8914,7.43734 2.06527,8.14731 2.08533,8.54297 c 0.04792,0.92284 0.62303,1.58713 1.0655,2.45203 0.46253,0.9072 0.71665,1.7175 1.4946,2.5099 0.46588,0.4748 1.27392,0.535 1.80667,1.187 l -0.40123,0.4659 z"
       fill="#adb0b5"
       id="path60" />
    <path
       d="M 5.89758,21.3907 5.8073,20.5715 C 4.74737,20.061 4.65487,19.4826 3.49574,19.1817 c -2.644807,-0.6799 -2.384,1.2549 -1.73088,2.9401 0.63306,1.6417 0.91838,3.3693 1.59937,4.9921 0.31095,0.75 0.77014,1.4734 1.59268,1.6863 C 4.99814,27.8606 4.85437,27.6132 4.27592,26.9144 3.78552,26.3248 3.90478,25.5156 3.59939,24.8525 3.20039,23.9831 3.13129,23.1082 2.78801,22.2333 2.63643,21.8454 1.85959,20.6729 2.06913,20.2427 c 0.35442,-0.7356 1.02315,-0.0089 1.35751,0.2318 0.47034,0.3344 0.72111,0.2475 1.30179,0.3232 0.0613,0.0078 0.39566,0.2408 1.16915,0.593 z"
       fill="#adb0b5"
       id="path62" />
    <path
       d="M 8.33713,28.6503 8.0284,28.1108 c -0.74451,0.9953 -0.78018,1.8089 -1.12123,2.6025 -0.58848,1.3664 -0.01783,3.2155 1.09782,4.1996 0.6743,0.5996 1.77324,1.0722 2.57681,1.4645 1.1146,0.545 2.2414,1.2583 3.493,1.4935 0.2764,0.0524 0.9808,0.1449 0.7456,-0.3923 C 14.709,37.2289 13.9188,36.967 13.6892,36.8399 12.763,36.325 11.8635,35.6674 10.9987,35.0366 9.93984,34.272 8.67595,33.7894 7.84339,32.7317 7.50345,32.2982 7.44884,32.1834 7.52908,31.6852 7.60599,31.2104 7.67843,30.6631 7.77874,30.1872 7.87807,29.6474 8.06679,29.128 8.33713,28.6503 Z"
       fill="#adb0b5"
       id="path64" />
    <path
       d="m 29.4757,15.7288 c 0.4603,-0.0959 0.5461,-0.1717 0.8849,-0.3255 1.0677,-0.3745 1.1558,-0.6107 1.7911,-1.3218 0.8281,-0.9262 1.411,-2.2447 1.907,-3.2835 C 34.4566,9.95879 34.5045,8.96907 34.3774,8.09304 34.266,7.32066 33.5794,6.65863 33.0299,5.98433 32.3791,5.18297 31.8753,4.33258 31.0327,3.60478 30.1711,2.86027 28.4469,2.51141 28.1159,1.4147 27.9866,0.984491 28.379,0.197624 27.5832,0.00146484 27.6244,0.5253 27.1775,0.946597 27.3157,1.5139 c 0.1259,0.51603 0.487,0.64755 1.0711,1.01423 0.8426,0.52941 2.0474,0.97857 2.7585,1.56036 0.7991,0.64978 0.4859,1.53473 1.1769,2.23577 0.2229,0.22291 0.8805,0.52495 1.0187,0.76124 0.2073,0.35665 0.0334,1.06661 0.0123,1.46228 -0.0468,0.92284 -0.6231,1.58712 -1.0644,2.45202 -0.4626,0.9072 -0.7167,1.7175 -1.4935,2.5099 -0.4659,0.4748 -1.2739,0.535 -1.8067,1.187 l 0.3968,0.467 z"
       fill="#adb0b5"
       id="path66" />
    <path
       d="m 29.5391,21.3905 0.0902,-0.8192 c 1.06,-0.5104 1.1525,-1.0889 2.3105,-1.3898 2.6459,-0.6854 2.3818,1.2539 1.7309,2.9391 -0.6331,1.6417 -0.9184,3.3692 -1.5994,4.992 -0.3121,0.7456 -0.7701,1.4723 -1.5927,1.6863 -0.0412,-0.9396 0.1026,-1.187 0.681,-1.8858 0.4893,-0.5896 0.37,-1.3988 0.6765,-2.0619 0.399,-0.8694 0.4681,-1.7443 0.8114,-2.6192 0.1516,-0.3879 0.9284,-1.5604 0.7189,-1.9906 -0.3544,-0.7356 -1.0232,-0.0089 -1.3575,0.2319 -0.4704,0.3343 -0.72,0.2474 -1.3007,0.3232 -0.0602,0.0089 -0.3945,0.2418 -1.1691,0.594 z"
       fill="#adb0b5"
       id="path68" />
    <path
       d="m 27.0978,28.6503 0.3087,-0.5395 c 0.7445,0.9953 0.7802,1.8089 1.1212,2.6025 0.5874,1.3664 0.0167,3.2155 -1.0978,4.1996 -0.6743,0.5996 -1.7721,1.0722 -2.5768,1.4645 -1.1146,0.545 -2.2436,1.2583 -3.4941,1.4935 -0.2764,0.0524 -0.9797,0.1449 -0.7457,-0.3923 0.1115,-0.2497 0.9017,-0.5116 1.1313,-0.6387 0.9262,-0.5149 1.8267,-1.1725 2.6916,-1.8033 1.0588,-0.7646 2.3227,-1.2472 3.1542,-2.3049 0.3399,-0.4335 0.3945,-0.5483 0.3143,-1.0465 -0.078,-0.4748 -0.1505,-1.0221 -0.2497,-1.498 -0.0991,-0.5397 -0.2874,-1.0591 -0.5572,-1.5369 z"
       fill="#adb0b5"
       id="path70" />
    <path
       d="m 4.75674,48.0002 c 1.13015,0 2.13769,-0.4458 2.82202,-1.2505 L 6.67821,45.8492 c -0.3678,0.6598 -0.98079,1.1234 -1.87466,1.1234 -1.61943,0 -2.25695,-1.6038 -2.25695,-2.88 0,-1.713 0.9808,-2.9424 2.28816,-2.9424 h 0.0156 c 0.78018,0 1.42105,0.4314 1.82005,1.1213 L 7.60105,41.3408 C 7.26564,40.9499 6.84786,40.638 6.37768,40.4276 5.9075,40.2172 5.39658,40.1134 4.88157,40.1238 h -0.0156 c -1.78996,0 -3.73706,1.2148 -3.73706,4.0123 0,2.2915 1.46339,3.8641 3.62783,3.8641 z"
       fill="#adb0b5"
       id="path72" />
    <path
       d="m 15.146,45.9967 v 2.0061 h -1.1146 v -1.1546 c -0.4034,0.5885 -1.3943,1.1145 -2.4642,1.1145 -1.5192,0 -2.29376,-1.0688 -2.29376,-2.1544 0,-1.8133 1.61166,-2.8053 4.50946,-2.7863 v -0.1561 c 0,-0.6197 -0.1705,-1.7509 -1.7053,-1.7353 -0.696,-0.0077 -1.3795,0.1858 -1.9683,0.5573 l -0.30534,-0.914 c 0.61964,-0.3878 1.53364,-0.6509 2.47984,-0.6509 2.3093,0 2.8666,1.5604 2.8666,3.0684 z M 13.8085,43.966 c -1.4879,-0.0312 -3.1764,0.2318 -3.1764,1.6896 0,0.8995 0.5884,1.3018 1.2705,1.3018 0.992,0 1.6273,-0.6197 1.8446,-1.255 0.0434,-0.1403 0.0645,-0.2866 0.0624,-0.4335 z"
       fill="#adb0b5"
       id="path74" />
    <path
       d="m 17.7824,38.675 c -0.2439,-0.0043 -0.4761,-0.1053 -0.6455,-0.2807 -0.1694,-0.1755 -0.2621,-0.4111 -0.2579,-0.6549 0.0043,-0.2439 0.1053,-0.4761 0.2808,-0.6455 0.1755,-0.1694 0.411,-0.2622 0.6549,-0.2579 0.1209,-0.0043 0.2414,0.0163 0.354,0.0605 0.1126,0.0443 0.2148,0.1113 0.3004,0.1968 0.0855,0.0856 0.1525,0.1878 0.1968,0.3004 0.0443,0.1126 0.0649,0.2331 0.0605,0.354 0.0042,0.1229 -0.0169,0.2454 -0.062,0.3598 -0.0451,0.1144 -0.1133,0.2183 -0.2003,0.3053 -0.0869,0.0869 -0.1908,0.1551 -0.3052,0.2002 -0.1144,0.0451 -0.2369,0.0662 -0.3598,0.062 z m -0.6832,9.3265 v -7.8776 h 1.4322 v 7.8776 z"
       fill="#adb0b5"
       id="path76" />
    <path
       d="m 20.8242,42.7634 c 0,-0.8704 -0.0156,-1.6183 0,-2.6403 H 22 v 1.7832 h 0.0457 c 0.3344,-0.9919 1.7253,-1.7832 2.6259,-1.7832 0.1237,-9e-4 0.247,0.0145 0.3667,0.0457 v 1.2516 c -0.1569,-0.0186 -0.3146,-0.0286 -0.4726,-0.0301 -0.9462,0 -2.1834,0.885 -2.3662,1.8769 -0.0313,0.2122 -0.0466,0.4264 -0.0457,0.6409 v 4.0926 h -1.3452 z"
       fill="#adb0b5"
       id="path78" />
    <path
       d="m 29.8935,48.0006 c -2.024,0 -3.6123,-1.4946 -3.6123,-3.8763 0,-2.5223 1.6663,-4.0013 3.7371,-4.0013 2.1644,0 3.6278,1.5727 3.6278,3.8608 0,2.802 -1.946,4.0124 -3.7359,4.0124 h -0.0156 z m 0.0468,-1.0276 c 1.3073,0 2.2893,-1.226 2.2893,-2.9424 0,-1.2772 -0.6387,-2.8799 -2.2581,-2.8799 -1.6194,0 -2.3038,1.4946 -2.3038,2.9267 0,1.6507 0.934,2.8979 2.257,2.8979 z"
       fill="#adb0b5"
       id="path80" />
    <path
       style="fill:#ff6600;fill-opacity:1;stroke:#ff6600;stroke-width:0.0592503"
       d="M 16.255744,34.247292 C 14.871104,34.010143 13.411115,33.39038 12.167473,32.511829 11.459807,32.01191 10.020281,30.586435 9.4536558,29.824502 8.609471,28.689338 7.8130766,27.232413 7.2880595,25.862757 6.6398066,24.171605 6.1683612,21.990349 6.0820172,20.282711 l -0.034985,-0.691897 0.2710406,-0.167233 c 0.1490723,-0.09198 0.4081073,-0.241534 0.5756331,-0.332346 0.2107004,-0.114216 0.2988163,-0.196404 0.2858542,-0.266626 -0.011124,-0.06026 -0.2354266,-0.209858 -0.551991,-0.36814 L 6.0943168,18.189843 6.076432,17.81009 6.058547,17.430338 l 2.6841485,0.0377 c 3.6194445,0.05084 5.7151075,0.184843 6.8316695,0.436828 l 0.414752,0.0936 0.813331,0.80669 0.813331,0.806689 -0.496789,1.186734 -0.49679,1.186734 0.497343,6.130678 c 0.273539,3.371873 0.497706,6.150676 0.49815,6.175116 0.0013,0.06887 -0.867079,0.04094 -1.361949,-0.04382 z"
       id="path965" />
    <path
       style="fill:#ff6600;fill-opacity:1;stroke:#ff6600;stroke-width:0.0592503"
       d="m 17.824162,34.121977 c 0.01764,-0.126942 0.246714,-2.910399 0.50906,-6.185459 l 0.476993,-5.954656 -0.477357,-1.147609 c -0.262546,-0.631185 -0.477356,-1.181553 -0.477356,-1.223039 0,-0.0968 1.444943,-1.488425 1.662,-1.600669 0.593467,-0.306894 4.277359,-0.559339 8.182803,-0.560742 l 1.638635,-5.89e-4 0.04099,0.298004 c 0.05222,0.379661 0.01243,0.427059 -0.606522,0.722563 -0.268869,0.128364 -0.505019,0.25955 -0.52478,0.291524 -0.05883,0.0952 0.137796,0.264773 0.570918,0.492372 0.585972,0.307919 0.5982,0.325286 0.558409,0.793073 -0.174047,2.046127 -0.411271,3.323078 -0.898848,4.838377 -1.449394,4.504456 -4.366845,7.82585 -7.906875,9.001643 -0.812572,0.269889 -1.430956,0.393285 -2.17074,0.433162 l -0.609393,0.03285 z"
       id="path967" />
    <path
       style="fill:#ff6600;fill-opacity:1;stroke:#ff6600;stroke-width:0.0592503"
       d="m 17.254526,27.574742 -0.449736,-5.56904 0.457199,-1.095377 0.457198,-1.095377 0.457674,1.095288 0.457674,1.095287 -0.451578,5.555572 c -0.248368,3.055564 -0.45768,5.561673 -0.465137,5.56913 -0.0075,0.0075 -0.215939,-2.49251 -0.463294,-5.555483 z"
       id="path969" />
    <path
       style="fill:#ff6600;fill-opacity:1;stroke:#ff6600;stroke-width:0.0592503"
       d="M 16.964185,18.714894 C 16.524336,18.270629 16.129011,17.925105 15.985783,17.859747 15.241002,17.519883 11.778578,17.274132 7.7081873,17.272231 l -1.644896,-7.68e-4 0.029196,-0.222189 C 6.1085453,16.927071 6.1662593,16.46714 6.220741,16.027207 L 6.319799,15.227328 6.9773121,14.57368 c 1.494038,-1.485253 3.3824389,-2.386502 5.8419139,-2.788084 0.525065,-0.08573 1.194291,-0.105596 4.289374,-0.127314 4.008965,-0.02813 4.993701,0.01205 6.179495,0.252145 2.19687,0.444816 4.269412,1.558245 5.491447,2.950162 l 0.322133,0.366914 0.09145,0.651666 c 0.0503,0.358416 0.108804,0.818307 0.13001,1.02198 l 0.03856,0.370314 -1.590762,9.32e-4 c -3.76698,0.0022 -6.998408,0.206962 -8.105022,0.51357 -0.335224,0.09288 -0.411456,0.151104 -1.161218,0.886905 l -0.802443,0.7875 z"
       id="path971" />
    <path
       style="fill:#ff6600;fill-opacity:1;stroke:#ff6600;stroke-width:0.0592503"
       d="m 12.730351,11.305102 c -1.224781,-0.162445 -1.545843,-0.822125 -0.773534,-1.5893681 0.657166,-0.6528561 2.055959,-1.1577131 3.884175,-1.4018886 0.7353,-0.098206 3.064046,-0.096251 3.792019,0.00318 2.176978,0.2973577 3.772004,0.9943025 4.153283,1.8147727 0.304604,0.655475 -0.05492,0.997978 -1.209868,1.152587 -0.436846,0.05848 -9.418867,0.07738 -9.846075,0.02071 z"
       id="path973" />
    <path
       style="fill:#ff6600;fill-opacity:1;stroke:#ff6600;stroke-width:0.0592503"
       d="m 29.443855,15.419891 c -0.02263,-0.143015 -0.115504,-0.346311 -0.214949,-0.470528 -0.0963,-0.120293 -0.175097,-0.246773 -0.175097,-0.281067 0,-0.09748 0.454261,-0.40508 1.018833,-0.689888 0.283363,-0.142946 0.610328,-0.343422 0.72659,-0.445501 0.306164,-0.268816 0.810904,-1.056536 1.179122,-1.840189 C 32.154412,11.318024 32.476633,10.701151 32.6944,10.32189 32.912167,9.9426279 33.143591,9.4808133 33.208677,9.2956348 33.409783,8.7234516 33.50968,7.4203307 33.375083,7.1249229 33.340296,7.0485742 33.08456,6.8310947 32.806779,6.6416342 32.243258,6.2572846 32.017817,5.9656588 31.867835,5.4270377 31.537992,4.2424865 31.368144,4.0760146 29.487758,3.0942592 28.257418,2.4518951 27.620448,2.053815 27.480031,1.8395127 27.31291,1.5844526 27.303502,1.1940823 27.452325,0.68979717 c 0.220657,-0.74769562 0.185658,-0.7059189 0.417698,-0.49859086 0.198833,0.1776567 0.201444,0.18641175 0.192657,0.64581252 -0.01834,0.95856897 0.318456,1.32771557 1.998384,2.19036007 0.867044,0.4452275 1.375319,0.9197445 2.396768,2.237579 0.407684,0.5259781 0.916383,1.1696249 1.130445,1.4303263 0.21406,0.2607013 0.474528,0.6466329 0.578817,0.8576256 0.181704,0.3676149 0.190444,0.4183012 0.209421,1.2146312 0.01452,0.609099 -0.0053,0.9390017 -0.07425,1.235424 -0.169099,0.727114 -1.218659,2.825438 -1.811525,3.621679 -0.355568,0.477542 -0.927516,1.100851 -1.181591,1.287701 -0.26367,0.193905 -1.538872,0.75936 -1.712493,0.75936 -0.08713,0 -0.12206,-0.05756 -0.152801,-0.251814 z"
       id="path975" />
    <path
       style="fill:#ff6600;fill-opacity:1;stroke:#ff6600;stroke-width:0.0592503"
       d="M 5.0747508,15.388067 C 4.2509152,15.041643 4.0086639,14.870894 3.463881,14.252656 2.935958,13.653552 2.4537887,12.927685 2.019221,12.077836 1.1659002,10.409067 0.99481516,9.8120651 1.0419481,8.6676402 1.0689865,8.0111291 1.0842463,7.9397117 1.2832303,7.5384207 1.4039277,7.2950104 1.7593458,6.7878716 2.1063492,6.3639304 2.4422344,5.9535717 2.9647403,5.2957358 3.2674733,4.9020724 4.1492465,3.7554456 4.4987625,3.4702219 5.9417595,2.7197128 6.5810601,2.3872097 7.1012514,1.9446333 7.2578049,1.6000266 7.333903,1.4325192 7.3659782,1.217695 7.3668972,0.86938425 7.3681237,0.403882 7.3779817,0.3662279 7.5413917,0.20281834 c 0.209009,-0.20900905 0.300809,-0.21981128 0.300809,-0.0353966 0,0.0757881 0.066657,0.32858244 0.1481258,0.56176511 C 8.0717956,0.96236954 8.1378668,1.213647 8.1371511,1.2875813 8.1353025,1.4786651 7.942031,1.8732174 7.7759541,2.0249475 7.5743663,2.2091212 6.6363439,2.7548221 5.738815,3.2100673 4.7610325,3.7060188 4.2134863,4.0709115 3.9889944,4.3761731 3.8867286,4.515233 3.7254919,4.8938904 3.6072255,5.2727407 3.3739426,6.020031 3.1773034,6.3007856 2.6720481,6.6079563 2.2310313,6.8760734 2.0428414,7.0708126 1.9990185,7.3044087 c -0.056369,0.3004707 0.085703,1.5644408 0.2197411,1.9549714 0.064025,0.1865431 0.2983875,0.6591205 0.520805,1.0501729 0.2224176,0.391052 0.5536036,1.025314 0.735969,1.409471 0.6352916,1.338258 1.0885957,1.867243 1.986566,2.318231 0.2952797,0.148298 0.6321987,0.353331 0.7487089,0.455628 l 0.2118367,0.185995 -0.2086019,0.254572 c -0.114731,0.140014 -0.208966,0.303409 -0.209411,0.3631 -0.0016,0.215102 -0.074127,0.375112 -0.1690397,0.372956 -0.053228,-0.0012 -0.3956064,-0.127857 -0.7608418,-0.281439 z"
       id="path977" />
    <path
       style="fill:#ff6600;fill-opacity:1;stroke:#ff6600;stroke-width:0.0592503"
       d="M 4.5908059,28.631887 C 4.4482159,28.559017 4.2077512,28.364013 4.0564399,28.198545 3.5374215,27.63097 3.2228773,26.872573 2.565654,24.604112 2.3366332,23.813628 1.9904181,22.700272 1.7962871,22.129988 1.4275601,21.046806 1.3110632,20.44741 1.3804303,19.990332 c 0.09829,-0.647661 0.4590915,-0.91574 1.2181187,-0.905074 0.8706306,0.01223 1.4660327,0.239628 2.2218863,0.848576 0.2444075,0.196906 0.5577309,0.418286 0.6962743,0.491958 0.2610216,0.1388 0.2578191,0.131978 0.3334455,0.710306 L 5.8790209,21.35684 5.3037936,21.068177 C 4.8536682,20.842294 4.6386905,20.770201 4.315311,20.736691 3.8025435,20.683555 3.6364331,20.614453 3.2037575,20.274283 2.6347624,19.826939 2.3492456,19.793853 2.1169717,20.148348 c -0.1591693,0.242923 -0.074109,0.601263 0.3545442,1.493608 0.2929143,0.609773 0.4510887,1.04099 0.6306568,1.719304 0.1318256,0.497967 0.3204016,1.108593 0.4190579,1.356946 0.098656,0.248353 0.2290092,0.698285 0.2896731,0.99985 0.1340356,0.666301 0.2693839,0.984365 0.5932237,1.394053 0.372813,0.471643 0.4818421,0.727418 0.5188902,1.217279 0.018305,0.242028 0.00941,0.436268 -0.019967,0.435812 -0.029144,-4.74e-4 -0.1696544,-0.06044 -0.3122447,-0.133313 z"
       id="path979" />
    <path
       style="fill:#ff6600;fill-opacity:1;stroke:#ff6600;stroke-width:0.0592503"
       d="M 13.753759,37.775928 C 13.132338,37.608319 12.803288,37.462071 10.775091,36.452046 8.8525717,35.494647 8.349313,35.204322 7.9413364,34.817282 7.1804218,34.095415 6.716445,32.990229 6.716445,31.899609 c 0,-0.47835 0.029344,-0.609679 0.3586368,-1.605093 0.3320443,-1.00373 0.6476969,-1.750285 0.8573774,-2.027796 0.047447,-0.0628 0.095058,-0.102791 0.1058007,-0.08888 0.010743,0.01392 0.077501,0.126514 0.1483516,0.250221 l 0.128819,0.22492 -0.1409921,0.278707 c -0.2211943,0.437247 -0.3865537,1.036421 -0.5429447,1.967341 -0.1897791,1.129663 -0.1869704,1.278767 0.030266,1.606735 0.4017851,0.606585 0.9272023,1.048607 2.1060754,1.771795 0.4888149,0.299867 1.2753629,0.819067 1.7478829,1.153777 1.241165,0.879179 1.808589,1.237325 2.499219,1.577456 0.704746,0.347084 0.818798,0.433758 0.818798,0.622244 0,0.276392 -0.395636,0.329469 -1.079977,0.144888 z"
       id="path981" />
    <path
       style="fill:#ff6600;fill-opacity:1;stroke:#ff6600;stroke-width:0.0592503"
       d="m 17.393697,38.53479 c -0.829054,-0.410374 -0.517734,-1.651477 0.414259,-1.651477 0.557726,0 0.876425,0.314466 0.876829,0.86518 2.66e-4,0.365165 -0.17026,0.655461 -0.474962,0.808549 -0.272977,0.137148 -0.506987,0.130768 -0.816126,-0.02225 z"
       id="path983" />
    <path
       style="fill:#ff6600;fill-opacity:1;stroke:#ff6600;stroke-width:0.0592503"
       d="m 20.67124,37.812802 c -0.09775,-0.07381 -0.107402,-0.1164 -0.05828,-0.257161 0.04825,-0.138235 0.19223,-0.235654 0.797318,-0.539461 0.662414,-0.332588 1.267295,-0.719804 3.152519,-2.018094 0.316191,-0.21775 0.939903,-0.622542 1.386026,-0.899537 0.83932,-0.521128 1.519689,-1.109762 1.828177,-1.58168 0.207468,-0.31738 0.207459,-0.54915 -5.9e-5,-1.744566 -0.138018,-0.795012 -0.262165,-1.230974 -0.564769,-1.983274 -0.06601,-0.164097 -0.05897,-0.20895 0.06401,-0.407926 0.130917,-0.211828 0.142569,-0.217698 0.222115,-0.111882 0.209618,0.278858 0.504418,0.968025 0.846131,1.978058 0.349954,1.034394 0.37098,1.127834 0.373319,1.659009 0.006,1.365922 -0.677933,2.620276 -1.84576,3.385108 -0.635982,0.416516 -4.1563,2.150868 -4.795708,2.362697 -0.671681,0.22252 -1.236098,0.286275 -1.405039,0.158709 z"
       id="path985" />
    <path
       style="fill:#ff6600;fill-opacity:1;stroke:#ff6600;stroke-width:0.0592503"
       d="m 30.489704,28.432133 c 0.04984,-0.54841 0.154493,-0.807162 0.525014,-1.298059 0.368455,-0.488161 0.468843,-0.726633 0.622469,-1.478693 0.05326,-0.260701 0.173076,-0.666484 0.266268,-0.901739 0.09319,-0.235255 0.277455,-0.835165 0.409471,-1.333132 0.180622,-0.68131 0.341271,-1.118029 0.649085,-1.764525 0.22498,-0.472521 0.42655,-0.955875 0.447931,-1.07412 0.07747,-0.428392 -0.28288,-0.784854 -0.651666,-0.644641 -0.09273,0.03525 -0.330926,0.186767 -0.529334,0.336696 -0.45679,0.345177 -0.618695,0.411949 -1.130517,0.466241 -0.333789,0.03541 -0.520841,0.100886 -0.962818,0.33704 l -0.548545,0.293095 6.52e-4,-0.168219 c 0.0018,-0.451868 0.06674,-0.606075 0.317969,-0.754498 0.134341,-0.07937 0.48422,-0.333602 0.777509,-0.564966 0.581204,-0.458489 0.931472,-0.618553 1.653901,-0.755793 0.787564,-0.149614 1.318463,-0.01184 1.574084,0.408496 0.289988,0.476847 0.211155,1.189816 -0.295257,2.670323 -0.191982,0.561264 -0.521804,1.620389 -0.732938,2.353611 -0.571502,1.984708 -0.883473,2.803126 -1.288759,3.3809 -0.236789,0.337566 -0.705041,0.713471 -0.993939,0.797918 -0.140907,0.04119 -0.141881,0.03849 -0.11058,-0.305935 z"
       id="path987" />
    <path
       style="fill:#ff6600;fill-opacity:1;stroke:#ff6600;stroke-width:0.0592503"
       d="m 29.019305,47.875282 c -1.228915,-0.267408 -2.2353,-1.289575 -2.574168,-2.614538 -0.16111,-0.629934 -0.160557,-1.667425 0.0012,-2.30961 0.241112,-0.957041 0.736841,-1.691755 1.470599,-2.179557 1.436436,-0.95494 3.467779,-0.791158 4.632439,0.373502 0.672439,0.672439 0.991102,1.47526 1.049466,2.643962 0.103482,2.072153 -0.927902,3.592651 -2.753716,4.059615 -0.521372,0.133345 -1.284279,0.14447 -1.825852,0.02663 z m 1.736058,-1.067024 c 1.106886,-0.502501 1.716218,-2.02429 1.412594,-3.527911 -0.191021,-0.945985 -0.650114,-1.632964 -1.307014,-1.955795 -0.254689,-0.125166 -0.379377,-0.145592 -0.888754,-0.145592 -0.51576,0 -0.634712,0.02002 -0.91838,0.154535 -0.667953,0.316753 -1.170606,1.065181 -1.335059,1.987847 -0.104015,0.583582 -0.104129,0.878316 -5.62e-4,1.459269 0.144525,0.810714 0.620121,1.587595 1.186009,1.937333 0.512064,0.316473 1.271392,0.353519 1.851167,0.09031 z"
       id="path989" />
    <path
       style="fill:#ff6600;fill-opacity:1;stroke:#ff6600;stroke-width:0.0592503"
       d="m 20.818017,44.0526 v -3.91052 h 0.59096 0.59096 l 0.01636,0.903567 0.01636,0.903567 0.115004,-0.237001 c 0.06325,-0.130351 0.289885,-0.41054 0.503628,-0.622643 0.591905,-0.587364 1.496492,-0.987578 2.116831,-0.936544 l 0.227052,0.01868 0.0168,0.599781 0.0168,0.599781 -0.501971,0.02635 c -0.427537,0.02244 -0.566207,0.05822 -0.935181,0.24131 -0.492417,0.244342 -1.04771,0.756848 -1.23159,1.136692 -0.207602,0.42885 -0.238502,0.8218 -0.238502,3.032955 V 47.96312 H 21.46977 20.818017 Z"
       id="path991" />
    <path
       style="fill:#ff6600;fill-opacity:1;stroke:#ff6600;stroke-width:0.0592503"
       d="m 17.144498,44.0526 v -3.91052 h 0.681379 0.681378 v 3.91052 3.91052 h -0.681378 -0.681379 z"
       id="path993" />
    <path
       style="fill:#ff6600;fill-opacity:1;stroke:#ff6600;stroke-width:0.0592503"
       d="M 11.108123,47.89786 C 10.402456,47.77726 9.8737142,47.412511 9.5565493,46.827518 9.3579128,46.461145 9.3531207,46.436064 9.3546519,45.770859 c 0.0019,-0.824695 0.094902,-1.074664 0.5948572,-1.598814 0.6604309,-0.692393 2.0123759,-1.125869 3.5134849,-1.126533 l 0.377141,-1.67e-4 -0.04042,-0.34069 c -0.09563,-0.806027 -0.318528,-1.179 -0.851284,-1.424464 -0.600551,-0.2767 -1.587085,-0.20644 -2.433348,0.173299 -0.208181,0.09342 -0.385706,0.169847 -0.3945,0.169847 -0.02529,0 -0.263871,-0.726312 -0.263871,-0.803292 0,-0.0381 0.166641,-0.144229 0.370314,-0.235833 1.091653,-0.490986 2.408793,-0.567937 3.396396,-0.198428 0.440041,0.164641 0.923853,0.618677 1.15003,1.079255 0.324209,0.660202 0.356537,1.013484 0.356537,3.89628 v 2.601801 h -0.533253 -0.533253 v -0.570986 -0.570986 l -0.282305,0.264064 c -0.155268,0.145235 -0.401897,0.333181 -0.548065,0.417658 -0.570569,0.329757 -1.497994,0.502146 -2.124989,0.39499 z m 1.536005,-1.056053 c 0.443314,-0.168446 0.789082,-0.480621 1.000128,-0.902962 0.177412,-0.355031 0.182225,-0.386566 0.182225,-1.193758 v -0.829093 l -0.63694,0.03686 c -1.375559,0.07962 -2.192921,0.458071 -2.482679,1.149531 -0.180378,0.430441 -0.06505,1.164872 0.233995,1.490168 0.333797,0.363094 1.106188,0.476122 1.703271,0.249249 z"
       id="path995" />
    <path
       style="fill:#ff6600;fill-opacity:1;stroke:#ff6600;stroke-width:0.0592503"
       d="M 3.9613059,47.902565 C 2.9351887,47.696603 2.0467939,47.019024 1.595801,46.098392 1.2671184,45.427439 1.1822847,45.021105 1.1810538,44.11185 c -0.00123,-0.908144 0.1199989,-1.463934 0.4579894,-2.099721 0.2428839,-0.456884 0.7910112,-1.042849 1.2183282,-1.302431 1.3866971,-0.842374 3.265106,-0.708625 4.3923263,0.312747 l 0.3258767,0.295277 -0.4407008,0.446851 -0.4407004,0.44685 -0.3077448,-0.340069 C 6.2171688,41.684316 5.9355566,41.452012 5.7606235,41.355123 5.4673247,41.192674 5.3964366,41.178964 4.8500605,41.179006 c -0.53534,4.1e-5 -0.6231182,0.01616 -0.9098338,0.167112 -1.4191585,0.74715 -1.8655893,3.135373 -0.8754369,4.68323 C 3.4730782,46.667606 4.043891,46.98064 4.7908102,46.9759 5.5563734,46.971 6.1991416,46.646143 6.542591,46.09043 l 0.1308012,-0.211641 0.4397324,0.43485 0.439732,0.43485 -0.3164529,0.296251 c -0.6402573,0.599386 -1.5289028,0.923587 -2.4995091,0.911888 -0.2962231,-0.0036 -0.645238,-0.0279 -0.7755887,-0.05406 z"
       id="path997" />
  </g>
</svg>
